<svg height="1518" width="720" xmlns="http://www.w3.org/2000/svg">
<rect height="1518" fill="#555" width="720"></rect>
<text fill="#7f7" font-family="Courier New" font-size="12" xml:space="preserve">
<tspan x="10" y="26"></tspan>
<tspan x="10" y="42">&gt; npmdoc-karma@0.0.4 test /home/travis/build/npmdoc/node-npmdoc-karma</tspan>
<tspan x="10" y="58">&gt; (set -e; export PORT=$(utility2 shServerPortRandom); utility2 test test.js)</tspan>
<tspan x="10" y="74"></tspan>
<tspan x="10" y="90"></tspan>
<tspan x="10" y="106">[MODE_BUILD=npmTest] - 2017-04-11T05:13:09Z - npm-testing /home/travis/build/npmdoc/node-npmdoc-\</tspan>
<tspan x="10" y="122">karma</tspan>
<tspan x="10" y="138"></tspan>
<tspan x="10" y="154">merging file:///home/travis/build/npmdoc/node-npmdoc-karma/tmp/build/test-report.json to test-re\</tspan>
<tspan x="10" y="170">port</tspan>
<tspan x="10" y="186">&gt; server listening on http-port 65167</tspan>
<tspan x="10" y="202">Expression assignment to _ now disabled.</tspan>
<tspan x="10" y="218">created apidoc file:///home/travis/build/npmdoc/node-npmdoc-karma/tmp/build/apidoc.html</tspan>
<tspan x="10" y="234"></tspan>
<tspan x="10" y="250"></tspan>
<tspan x="10" y="266">browserTest - created electron entry-page /home/travis/build/npmdoc/node-npmdoc-karma/tmp/electr\</tspan>
<tspan x="10" y="282">on.15b5b6e10530.b20a79158ee63.html</tspan>
<tspan x="10" y="298"></tspan>
<tspan x="10" y="314">[node test-case 1 of 6 passed] - testCase_buildLib_default</tspan>
<tspan x="10" y="330">[node test-case 2 of 6 passed] - testCase_buildReadme_default</tspan>
<tspan x="10" y="346">[node test-case 3 of 6 passed] - testCase_buildTest_default</tspan>
<tspan x="10" y="362"></tspan>
<tspan x="10" y="378">browserTest - created electron entry-page /home/travis/build/npmdoc/node-npmdoc-karma/tmp/electr\</tspan>
<tspan x="10" y="394">on.15b5b6e10b50.c3d1632f8196a.html</tspan>
<tspan x="10" y="410"></tspan>
<tspan x="10" y="426">Xlib:  extension "RANDR" missing on display ":99.0".</tspan>
<tspan x="10" y="442">Xlib:  extension "RANDR" missing on display ":99.0".</tspan>
<tspan x="10" y="458">merging file:///home/travis/build/npmdoc/node-npmdoc-karma/tmp/build/test-report.json to test-re\</tspan>
<tspan x="10" y="474">port</tspan>
<tspan x="10" y="490">Xlib:  extension "RANDR" missing on display ":99.0".</tspan>
<tspan x="10" y="506">[6055:0411/051312:WARNING:audio_manager.cc(314)] Multiple instances of AudioManager detected</tspan>
<tspan x="10" y="522">[6055:0411/051312:WARNING:audio_manager.cc(275)] Multiple instances of AudioManager detected</tspan>
<tspan x="10" y="538">[6085:0411/051312:ERROR:sandbox_linux.cc(343)] InitializeSandbox() called with multiple threads \</tspan>
<tspan x="10" y="554">in process gpu-process. </tspan>
<tspan x="10" y="570">[6055:0411/051312:ERROR:browser_gpu_channel_host_factory.cc(131)] Failed to create channel.</tspan>
<tspan x="10" y="586">merging file:///home/travis/build/npmdoc/node-npmdoc-karma/tmp/build/test-report.json to test-re\</tspan>
<tspan x="10" y="602">port</tspan>
<tspan x="10" y="618">Xlib:  extension "RANDR" missing on display ":99.0".</tspan>
<tspan x="10" y="634">[6067:0411/051313:WARNING:audio_manager.cc(314)] Multiple instances of AudioManager detected</tspan>
<tspan x="10" y="650">[6067:0411/051313:WARNING:audio_manager.cc(275)] Multiple instances of AudioManager detected</tspan>
<tspan x="10" y="666"></tspan>
<tspan x="10" y="682">browserTest - opened url /home/travis/build/npmdoc/node-npmdoc-karma/tmp/build/apidoc.html</tspan>
<tspan x="10" y="698"></tspan>
<tspan x="10" y="714">[6127:0411/051313:ERROR:sandbox_linux.cc(343)] InitializeSandbox() called with multiple threads \</tspan>
<tspan x="10" y="730">in process gpu-process. </tspan>
<tspan x="10" y="746">[6067:0411/051313:ERROR:browser_gpu_channel_host_factory.cc(131)] Failed to create channel.</tspan>
<tspan x="10" y="762">&gt; </tspan>
<tspan x="10" y="778">browserTest - opened url http://127.0.0.1:65167?modeTest=1</tspan>
<tspan x="10" y="794"></tspan>
<tspan x="10" y="810">server listening on http-port 45324</tspan>
<tspan x="10" y="826">[node test-case 4 of 6 passed] - testCase_buildApp_default</tspan>
<tspan x="10" y="842"></tspan>
<tspan x="10" y="858">browserTest - created screenCapture file:///home/travis/build/npmdoc/node-npmdoc-karma/tmp/build\</tspan>
<tspan x="10" y="874">/screenCapture.npmTest.browser.%2Fhome%2Ftravis%2Fbuild%2Fnpmdoc%2Fnode-npmdoc-karma%2Ftmp%2Fbui\</tspan>
<tspan x="10" y="890">ld%2Fapidoc.html.png</tspan>
<tspan x="10" y="906"></tspan>
<tspan x="10" y="922">browserTest - created screenCapture file:///home/travis/build/npmdoc/node-npmdoc-karma/tmp/build\</tspan>
<tspan x="10" y="938">/screenCapture.npmTest.browser.%2Fhome%2Ftravis%2Fbuild%2Fnpmdoc%2Fnode-npmdoc-karma%2Ftmp%2Fbui\</tspan>
<tspan x="10" y="954">ld%2Fapidoc.html.html</tspan>
<tspan x="10" y="970"></tspan>
<tspan x="10" y="986">browserTest - exit-code 0 - /home/travis/build/npmdoc/node-npmdoc-karma/tmp/build/apidoc.html</tspan>
<tspan x="10" y="1002"></tspan>
<tspan x="10" y="1018">[node test-case 5 of 6 passed] - testCase_buildApidoc_default</tspan>
<tspan x="10" y="1034"></tspan>
<tspan x="10" y="1050">browserTest - created screenCapture file:///home/travis/build/npmdoc/node-npmdoc-karma/tmp/build\</tspan>
<tspan x="10" y="1066">/screenCapture.npmTest.browser.%2F.png</tspan>
<tspan x="10" y="1082"></tspan>
<tspan x="10" y="1098">browserTest - created screenCapture file:///home/travis/build/npmdoc/node-npmdoc-karma/tmp/build\</tspan>
<tspan x="10" y="1114">/screenCapture.npmTest.browser.%2F.html</tspan>
<tspan x="10" y="1130"></tspan>
<tspan x="10" y="1146">browserTest - exit-code 0 - http://127.0.0.1:65167?modeTest=1</tspan>
<tspan x="10" y="1162"></tspan>
<tspan x="10" y="1178"></tspan>
<tspan x="10" y="1194">browserTest - merging test-report from /home/travis/build/npmdoc/node-npmdoc-karma/tmp/test-repo\</tspan>
<tspan x="10" y="1210">rt.npmTest.browser.%2F.json</tspan>
<tspan x="10" y="1226"></tspan>
<tspan x="10" y="1242">[node test-case 6 of 6 passed] - testCase_webpage_default</tspan>
<tspan x="10" y="1258">merging file:///home/travis/build/npmdoc/node-npmdoc-karma/tmp/build/test-report.json to test-re\</tspan>
<tspan x="10" y="1274">port</tspan>
<tspan x="10" y="1290"></tspan>
<tspan x="10" y="1306">-------------------------------------------------------</tspan>
<tspan x="10" y="1322">| test-report - buildCustomOrg - node - linux v6.10.2 - 2017-04-11T05:12:38.985Z</tspan>
<tspan x="10" y="1338">|   48467 ms            0 failed        6 passed      |</tspan>
<tspan x="10" y="1354">-------------------------------------------------------</tspan>
<tspan x="10" y="1370"></tspan>
<tspan x="10" y="1386">created test-report file:///home/travis/build/npmdoc/node-npmdoc-karma/tmp/build/test-report.htm\</tspan>
<tspan x="10" y="1402">l</tspan>
<tspan x="10" y="1418"></tspan>
<tspan x="10" y="1434"></tspan>
<tspan x="10" y="1450">npmTest - 0 failed tests</tspan>
<tspan x="10" y="1466"></tspan>
<tspan x="10" y="1482"></tspan>
<tspan x="10" y="1498">[MODE_BUILD=npmTest] - 2017-04-11T05:13:30Z - EXIT_CODE - 0</tspan>
</text>
</svg>
