<svg height="2814" width="720" xmlns="http://www.w3.org/2000/svg">
<rect height="2814" fill="#555" width="720"></rect>
<text fill="#7f7" font-family="Courier New" font-size="12" xml:space="preserve">
<tspan x="10" y="26">└─┬ karma@1.5.0 </tspan>
<tspan x="10" y="42">  ├── bluebird@3.5.0 </tspan>
<tspan x="10" y="58">  ├─┬ body-parser@1.17.1 </tspan>
<tspan x="10" y="74">  │ ├── bytes@2.4.0 </tspan>
<tspan x="10" y="90">  │ ├── content-type@1.0.2 </tspan>
<tspan x="10" y="106">  │ ├─┬ debug@2.6.1 </tspan>
<tspan x="10" y="122">  │ │ └── ms@0.7.2 </tspan>
<tspan x="10" y="138">  │ ├── depd@1.1.0 </tspan>
<tspan x="10" y="154">  │ ├─┬ http-errors@1.6.1 </tspan>
<tspan x="10" y="170">  │ │ ├── setprototypeof@1.0.3 </tspan>
<tspan x="10" y="186">  │ │ └── statuses@1.3.1 </tspan>
<tspan x="10" y="202">  │ ├── iconv-lite@0.4.15 </tspan>
<tspan x="10" y="218">  │ ├─┬ on-finished@2.3.0 </tspan>
<tspan x="10" y="234">  │ │ └── ee-first@1.1.1 </tspan>
<tspan x="10" y="250">  │ ├── qs@6.4.0 </tspan>
<tspan x="10" y="266">  │ ├─┬ raw-body@2.2.0 </tspan>
<tspan x="10" y="282">  │ │ └── unpipe@1.0.0 </tspan>
<tspan x="10" y="298">  │ └─┬ type-is@1.6.15 </tspan>
<tspan x="10" y="314">  │   ├── media-typer@0.3.0 </tspan>
<tspan x="10" y="330">  │   └─┬ mime-types@2.1.15 </tspan>
<tspan x="10" y="346">  │     └── mime-db@1.27.0 </tspan>
<tspan x="10" y="362">  ├─┬ chokidar@1.6.1 </tspan>
<tspan x="10" y="378">  │ ├─┬ anymatch@1.3.0 </tspan>
<tspan x="10" y="394">  │ │ ├── arrify@1.0.1 </tspan>
<tspan x="10" y="410">  │ │ └─┬ micromatch@2.3.11 </tspan>
<tspan x="10" y="426">  │ │   ├─┬ arr-diff@2.0.0 </tspan>
<tspan x="10" y="442">  │ │   │ └── arr-flatten@1.0.1 </tspan>
<tspan x="10" y="458">  │ │   ├─┬ braces@1.8.5 </tspan>
<tspan x="10" y="474">  │ │   │ ├─┬ expand-range@1.8.2 </tspan>
<tspan x="10" y="490">  │ │   │ │ └─┬ fill-range@2.2.3 </tspan>
<tspan x="10" y="506">  │ │   │ │   ├── is-number@2.1.0 </tspan>
<tspan x="10" y="522">  │ │   │ │   ├── isobject@2.1.0 </tspan>
<tspan x="10" y="538">  │ │   │ │   ├── randomatic@1.1.6 </tspan>
<tspan x="10" y="554">  │ │   │ │   └── repeat-string@1.6.1 </tspan>
<tspan x="10" y="570">  │ │   │ ├── preserve@0.2.0 </tspan>
<tspan x="10" y="586">  │ │   │ └── repeat-element@1.1.2 </tspan>
<tspan x="10" y="602">  │ │   ├─┬ expand-brackets@0.1.5 </tspan>
<tspan x="10" y="618">  │ │   │ └── is-posix-bracket@0.1.1 </tspan>
<tspan x="10" y="634">  │ │   ├── extglob@0.3.2 </tspan>
<tspan x="10" y="650">  │ │   ├── filename-regex@2.0.0 </tspan>
<tspan x="10" y="666">  │ │   ├─┬ kind-of@3.1.0 </tspan>
<tspan x="10" y="682">  │ │   │ └── is-buffer@1.1.5 </tspan>
<tspan x="10" y="698">  │ │   ├─┬ normalize-path@2.1.1 </tspan>
<tspan x="10" y="714">  │ │   │ └── remove-trailing-separator@1.0.1 </tspan>
<tspan x="10" y="730">  │ │   ├─┬ object.omit@2.0.1 </tspan>
<tspan x="10" y="746">  │ │   │ ├─┬ for-own@0.1.5 </tspan>
<tspan x="10" y="762">  │ │   │ │ └── for-in@1.0.2 </tspan>
<tspan x="10" y="778">  │ │   │ └── is-extendable@0.1.1 </tspan>
<tspan x="10" y="794">  │ │   ├─┬ parse-glob@3.0.4 </tspan>
<tspan x="10" y="810">  │ │   │ ├── glob-base@0.3.0 </tspan>
<tspan x="10" y="826">  │ │   │ └── is-dotfile@1.0.2 </tspan>
<tspan x="10" y="842">  │ │   └─┬ regex-cache@0.4.3 </tspan>
<tspan x="10" y="858">  │ │     ├── is-equal-shallow@0.1.3 </tspan>
<tspan x="10" y="874">  │ │     └── is-primitive@2.0.0 </tspan>
<tspan x="10" y="890">  │ ├── async-each@1.0.1 </tspan>
<tspan x="10" y="906">  │ ├── glob-parent@2.0.0 </tspan>
<tspan x="10" y="922">  │ ├── inherits@2.0.3 </tspan>
<tspan x="10" y="938">  │ ├─┬ is-binary-path@1.0.1 </tspan>
<tspan x="10" y="954">  │ │ └── binary-extensions@1.8.0 </tspan>
<tspan x="10" y="970">  │ ├─┬ is-glob@2.0.1 </tspan>
<tspan x="10" y="986">  │ │ └── is-extglob@1.0.0 </tspan>
<tspan x="10" y="1002">  │ ├── path-is-absolute@1.0.1 </tspan>
<tspan x="10" y="1018">  │ └─┬ readdirp@2.1.0 </tspan>
<tspan x="10" y="1034">  │   ├─┬ readable-stream@2.2.6 </tspan>
<tspan x="10" y="1050">  │   │ ├── buffer-shims@1.0.0 </tspan>
<tspan x="10" y="1066">  │   │ ├── isarray@1.0.0 </tspan>
<tspan x="10" y="1082">  │   │ ├── process-nextick-args@1.0.7 </tspan>
<tspan x="10" y="1098">  │   │ └── util-deprecate@1.0.2 </tspan>
<tspan x="10" y="1114">  │   └── set-immediate-shim@1.0.1 </tspan>
<tspan x="10" y="1130">  ├── colors@1.1.2 </tspan>
<tspan x="10" y="1146">  ├─┬ combine-lists@1.0.1 </tspan>
<tspan x="10" y="1162">  │ └── lodash@4.17.4 </tspan>
<tspan x="10" y="1178">  ├─┬ connect@3.6.0 </tspan>
<tspan x="10" y="1194">  │ ├─┬ finalhandler@1.0.0 </tspan>
<tspan x="10" y="1210">  │ │ ├── encodeurl@1.0.1 </tspan>
<tspan x="10" y="1226">  │ │ └── escape-html@1.0.3 </tspan>
<tspan x="10" y="1242">  │ ├── parseurl@1.3.1 </tspan>
<tspan x="10" y="1258">  │ └── utils-merge@1.0.0 </tspan>
<tspan x="10" y="1274">  ├── core-js@2.4.1 </tspan>
<tspan x="10" y="1290">  ├── di@0.0.1 </tspan>
<tspan x="10" y="1306">  ├─┬ dom-serialize@2.2.1 </tspan>
<tspan x="10" y="1322">  │ ├── custom-event@1.0.1 </tspan>
<tspan x="10" y="1338">  │ ├── ent@2.2.0 </tspan>
<tspan x="10" y="1354">  │ ├── extend@3.0.0 </tspan>
<tspan x="10" y="1370">  │ └── void-elements@2.0.1 </tspan>
<tspan x="10" y="1386">  ├─┬ expand-braces@0.1.2 </tspan>
<tspan x="10" y="1402">  │ ├── array-slice@0.2.3 </tspan>
<tspan x="10" y="1418">  │ ├── array-unique@0.2.1 </tspan>
<tspan x="10" y="1434">  │ └─┬ braces@0.1.5 </tspan>
<tspan x="10" y="1450">  │   └─┬ expand-range@0.1.1 </tspan>
<tspan x="10" y="1466">  │     ├── is-number@0.1.1 </tspan>
<tspan x="10" y="1482">  │     └── repeat-string@0.2.2 </tspan>
<tspan x="10" y="1498">  ├─┬ glob@7.1.1 </tspan>
<tspan x="10" y="1514">  │ ├── fs.realpath@1.0.0 </tspan>
<tspan x="10" y="1530">  │ ├─┬ inflight@1.0.6 </tspan>
<tspan x="10" y="1546">  │ │ └── wrappy@1.0.2 </tspan>
<tspan x="10" y="1562">  │ └── once@1.4.0 </tspan>
<tspan x="10" y="1578">  ├── graceful-fs@4.1.11 </tspan>
<tspan x="10" y="1594">  ├─┬ http-proxy@1.16.2 </tspan>
<tspan x="10" y="1610">  │ ├── eventemitter3@1.2.0 </tspan>
<tspan x="10" y="1626">  │ └── requires-port@1.0.0 </tspan>
<tspan x="10" y="1642">  ├── isbinaryfile@3.0.2 </tspan>
<tspan x="10" y="1658">  ├── lodash@3.10.1 </tspan>
<tspan x="10" y="1674">  ├─┬ log4js@0.6.38 </tspan>
<tspan x="10" y="1690">  │ ├─┬ readable-stream@1.0.34 </tspan>
<tspan x="10" y="1706">  │ │ ├── core-util-is@1.0.2 </tspan>
<tspan x="10" y="1722">  │ │ ├── isarray@0.0.1 </tspan>
<tspan x="10" y="1738">  │ │ └── string_decoder@0.10.31 </tspan>
<tspan x="10" y="1754">  │ └── semver@4.3.6 </tspan>
<tspan x="10" y="1770">  ├── mime@1.3.4 </tspan>
<tspan x="10" y="1786">  ├─┬ minimatch@3.0.3 </tspan>
<tspan x="10" y="1802">  │ └─┬ brace-expansion@1.1.6 </tspan>
<tspan x="10" y="1818">  │   ├── balanced-match@0.4.2 </tspan>
<tspan x="10" y="1834">  │   └── concat-map@0.0.1 </tspan>
<tspan x="10" y="1850">  ├─┬ optimist@0.6.1 </tspan>
<tspan x="10" y="1866">  │ ├── minimist@0.0.10 </tspan>
<tspan x="10" y="1882">  │ └── wordwrap@0.0.3 </tspan>
<tspan x="10" y="1898">  ├── qjobs@1.1.5 </tspan>
<tspan x="10" y="1914">  ├── range-parser@1.2.0 </tspan>
<tspan x="10" y="1930">  ├── rimraf@2.6.1 </tspan>
<tspan x="10" y="1946">  ├── safe-buffer@5.0.1 </tspan>
<tspan x="10" y="1962">  ├─┬ socket.io@1.7.3 </tspan>
<tspan x="10" y="1978">  │ ├── debug@2.3.3 </tspan>
<tspan x="10" y="1994">  │ ├─┬ engine.io@1.8.3 </tspan>
<tspan x="10" y="2010">  │ │ ├─┬ accepts@1.3.3 </tspan>
<tspan x="10" y="2026">  │ │ │ └── negotiator@0.6.1 </tspan>
<tspan x="10" y="2042">  │ │ ├── base64id@1.0.0 </tspan>
<tspan x="10" y="2058">  │ │ ├── cookie@0.3.1 </tspan>
<tspan x="10" y="2074">  │ │ ├── debug@2.3.3 </tspan>
<tspan x="10" y="2090">  │ │ ├─┬ engine.io-parser@1.3.2 </tspan>
<tspan x="10" y="2106">  │ │ │ ├── after@0.8.2 </tspan>
<tspan x="10" y="2122">  │ │ │ ├── arraybuffer.slice@0.0.6 </tspan>
<tspan x="10" y="2138">  │ │ │ ├── base64-arraybuffer@0.1.5 </tspan>
<tspan x="10" y="2154">  │ │ │ ├── blob@0.0.4 </tspan>
<tspan x="10" y="2170">  │ │ │ └── wtf-8@1.0.0 </tspan>
<tspan x="10" y="2186">  │ │ └─┬ ws@1.1.2 </tspan>
<tspan x="10" y="2202">  │ │   ├── options@0.0.6 </tspan>
<tspan x="10" y="2218">  │ │   └── ultron@1.0.2 </tspan>
<tspan x="10" y="2234">  │ ├─┬ has-binary@0.1.7 </tspan>
<tspan x="10" y="2250">  │ │ └── isarray@0.0.1 </tspan>
<tspan x="10" y="2266">  │ ├── object-assign@4.1.0 </tspan>
<tspan x="10" y="2282">  │ ├─┬ socket.io-adapter@0.5.0 </tspan>
<tspan x="10" y="2298">  │ │ └── debug@2.3.3 </tspan>
<tspan x="10" y="2314">  │ ├─┬ socket.io-client@1.7.3 </tspan>
<tspan x="10" y="2330">  │ │ ├── backo2@1.0.2 </tspan>
<tspan x="10" y="2346">  │ │ ├── component-bind@1.0.0 </tspan>
<tspan x="10" y="2362">  │ │ ├── component-emitter@1.2.1 </tspan>
<tspan x="10" y="2378">  │ │ ├── debug@2.3.3 </tspan>
<tspan x="10" y="2394">  │ │ ├─┬ engine.io-client@1.8.3 </tspan>
<tspan x="10" y="2410">  │ │ │ ├── component-emitter@1.2.1 </tspan>
<tspan x="10" y="2426">  │ │ │ ├── component-inherit@0.0.3 </tspan>
<tspan x="10" y="2442">  │ │ │ ├── debug@2.3.3 </tspan>
<tspan x="10" y="2458">  │ │ │ ├── has-cors@1.1.0 </tspan>
<tspan x="10" y="2474">  │ │ │ ├── parsejson@0.0.3 </tspan>
<tspan x="10" y="2490">  │ │ │ ├── parseqs@0.0.5 </tspan>
<tspan x="10" y="2506">  │ │ │ ├── xmlhttprequest-ssl@1.5.3 </tspan>
<tspan x="10" y="2522">  │ │ │ └── yeast@0.1.2 </tspan>
<tspan x="10" y="2538">  │ │ ├── indexof@0.0.1 </tspan>
<tspan x="10" y="2554">  │ │ ├── object-component@0.0.3 </tspan>
<tspan x="10" y="2570">  │ │ ├─┬ parseuri@0.0.5 </tspan>
<tspan x="10" y="2586">  │ │ │ └─┬ better-assert@1.0.2 </tspan>
<tspan x="10" y="2602">  │ │ │   └── callsite@1.0.0 </tspan>
<tspan x="10" y="2618">  │ │ └── to-array@0.1.4 </tspan>
<tspan x="10" y="2634">  │ └─┬ socket.io-parser@2.3.1 </tspan>
<tspan x="10" y="2650">  │   ├── component-emitter@1.1.2 </tspan>
<tspan x="10" y="2666">  │   ├─┬ debug@2.2.0 </tspan>
<tspan x="10" y="2682">  │   │ └── ms@0.7.1 </tspan>
<tspan x="10" y="2698">  │   ├── isarray@0.0.1 </tspan>
<tspan x="10" y="2714">  │   └── json3@3.3.2 </tspan>
<tspan x="10" y="2730">  ├── source-map@0.5.6 </tspan>
<tspan x="10" y="2746">  ├─┬ tmp@0.0.31 </tspan>
<tspan x="10" y="2762">  │ └── os-tmpdir@1.0.2 </tspan>
<tspan x="10" y="2778">  └─┬ useragent@2.1.13 </tspan>
<tspan x="10" y="2794">    └── lru-cache@2.2.4</tspan>
</text>
</svg>
